<svg width="20" height="20" viewBox="0 0 24 24" fill="none" xmlns="http://www.w3.org/2000/svg"><path fill-rule="evenodd" clip-rule="evenodd" d="M5 4C5.55228 4 6 4.44772 6 5V12C6 13.1046 6.89543 14 8 14H17.5858L15.2929 11.7071C14.9024 11.3166 14.9024 10.6834 15.2929 10.2929C15.6834 9.90237 16.3166 9.90237 16.7071 10.2929L20.7071 14.2929C20.8946 14.4804 21 14.7348 21 15C21 15.2652 20.8946 15.5196 20.7071 15.7071L16.7071 19.7071C16.3166 20.0976 15.6834 20.0976 15.2929 19.7071C14.9024 19.3166 14.9024 18.6834 15.2929 18.2929L17.5858 16H8C5.79086 16 4 14.2091 4 12V5C4 4.44772 4.44772 4 5 4Z" fill="currentColor"/></svg>
